#!OML:ASF E:\VariousWalksJay\Project 1\Capture day 1\Session 1\Actor2.ASF
:FULLY-SPECIFIED
:DEGREES
592
root 2.9054 16.3748 16.2709 41.99 -59.0897 -33.0005
lowerback 5.32922 0.383249 26.1464
upperback 6.90934 0.539656 3.70933
thorax 5.26914 1.27749 -10.3492
lowerneck 0.358753 3.7353 2.80971
upperneck -4.14803 4.94761 -2.35049
head -1.21089 2.46373 -1.25137
rclavicle 7.95139e-015 3.10104e-014
rhumerus -65.3489 12.8739 -121.385
rradius 61.1993
rwrist 21.3528
rhand -3.53696 9.3698
rfingers 7.12502
rthumb 22.1985 -19.3755
lclavicle 7.95139e-015 3.10104e-014
lhumerus -75.3684 -30.8462 136.713
lradius 58.4655
lwrist 4.22549
lhand 3.15807 -2.06666
lfingers 7.12502
lthumb 28.6116 25.7632
rfemur -34.0777 10.4193 33.7445
rtibia 47.4259
rfoot -23.9912 -5.22677
rtoes -13.2112
lfemur -36.3256 1.50615 -1.66616
ltibia 59.1766
lfoot -28.6196 -8.93118
ltoes -10.0746
593
root 2.88032 16.386 16.236 39.0079 -57.9595 -30.4312
lowerback 5.17527 0.234514 26.0566
upperback 6.98032 0.284629 3.82063
thorax 5.33691 1.1609 -10.1725
lowerneck 0.244769 3.43679 2.7371
upperneck -3.91097 4.54056 -2.55427
head -1.12506 2.26485 -1.29319
rclavicle 1.70955e-014 2.46493e-014
rhumerus -65.6293 13.1298 -121.524
rradius 61.2496
rwrist 20.782
rhand -3.53615 8.96081
rfingers 7.12502
rthumb 22.1993 -19.7844
lclavicle 1.70955e-014 2.46493e-014
lhumerus -75.1962 -30.7261 136.725
lradius 58.4481
lwrist 4.37277
lhand 3.49386 -1.87274
lfingers 7.12502
lthumb 28.9324 25.9026
rfemur -33.3917 8.4538 33.6243
rtibia 47.504
rfoot -24.6275 -5.37225
rtoes -14.1398
lfemur -36.6753 2.45834 -2.60988
ltibia 60.4595
lfoot -28.1896 -8.50073
ltoes -11.0371
594
root 2.85609 16.3967 16.2014 36.321 -56.6902 -28.2043
lowerback 5.02447 0.0894333 26.0505
upperback 7.046 0.0341261 3.97012
thorax 5.40569 1.04754 -9.99622
lowerneck 0.16085 3.12674 2.65891
upperneck -3.69023 4.12025 -2.73916
head -1.05116 2.05851 -1.32992
rclavicle -2.42517e-014 5.56597e-014
rhumerus -65.9215 13.3461 -121.598
rradius 61.3142
rwrist 20.1444
rhand -3.49009 8.67128
rfingers 7.12502
rthumb 22.2435 -20.0687
lclavicle -2.42517e-014 5.56597e-014
lhumerus -75.0294 -30.6373 136.785
lradius 58.4213
lwrist 4.43073
lhand 3.70042 -1.72575
lfingers 7.12502
lthumb 29.1296 26.0156
rfemur -32.6604 6.38531 33.6131
rtibia 47.513
rfoot -25.2508 -5.45426
rtoes -15.0153
lfemur -37.1124 3.52381 -3.45256
ltibia 62.1063
lfoot -27.8167 -7.82345
ltoes -12.1017
595
root 2.83289 16.4072 16.1672 33.9745 -55.2852 -26.3711
lowerback 4.87038 -0.0498575 26.1677
upperback 7.10661 -0.211587 4.15799
thorax 5.48184 0.940238 -9.84042
lowerneck 0.102664 2.80495 2.57824
upperneck -3.48863 3.68656 -2.88345
head -0.989406 1.84448 -1.35492
rclavicle -8.42847e-014 -2.46493e-014
rhumerus -66.1913 13.5166 -121.591
rradius 61.3649
rwrist 19.4584
rhand -3.30675 8.46449
rfingers 7.12502
rthumb 22.4195 -20.2544
lclavicle -8.42847e-014 -2.46493e-014
lhumerus -74.8514 -30.5626 136.858
lradius 58.3972
lwrist 4.44142
lhand 3.88845 -1.56234
lfingers 7.12502
lthumb 29.3092 26.1478
rfemur -31.8888 4.25048 33.7402
rtibia 47.4377
rfoot -25.8258 -5.49162
rtoes -15.9161
lfemur -37.6532 4.66064 -4.12821
ltibia 64.1429
lfoot -27.4989 -6.99643
ltoes -13.1869
596
root 2.81044 16.4181 16.133 31.96 -53.7848 -24.9244
lowerback 4.73068 -0.18169 26.3898
upperback 7.15235 -0.443286 4.38429
thorax 5.54494 0.839753 -9.69526
lowerneck 0.0701513 2.48105 2.4846
upperneck -3.29419 3.25267 -2.96805
head -0.935717 1.6295 -1.35992
rclavicle -2.38542e-015 -1.09729e-013
rhumerus -66.4713 13.6766 -121.574
rradius 61.405
rwrist 18.9054
rhand -3.27462 8.18285
rfingers 7.12502
rthumb 22.4504 -20.5323
lclavicle -2.38542e-015 -1.09729e-013
lhumerus -74.6582 -30.4652 136.928
lradius 58.3749
lwrist 4.4583
lhand 4.06968 -1.37952
lfingers 7.12502
lthumb 29.4822 26.3003
rfemur -31.0814 2.11521 33.9914
rtibia 47.2738
rfoot -26.3347 -5.48742
rtoes -16.8042
lfemur -38.295 5.83676 -4.61834
ltibia 66.5657
lfoot -27.2323 -6.11011
ltoes -14.3012
597
root 2.78854 16.4296 16.0989 30.2148 -52.2402 -23.8037
lowerback 4.60338 -0.296157 26.6968
upperback 7.19445 -0.649857 4.62598
thorax 5.61187 0.75475 -9.57568
lowerneck 0.0564034 2.14929 2.38799
upperneck -3.10941 2.81085 -2.97898
head -0.889427 1.4096 -1.34185
rclavicle 4.49253e-014 9.70069e-014
rhumerus -66.7019 13.8033 -121.523
rradius 61.397
rwrist 18.4815
rhand -3.22552 8.08028
rfingers 7.12502
rthumb 22.4975 -20.6292
lclavicle 4.49253e-014 9.70069e-014
lhumerus -74.4654 -30.363 136.989
lradius 58.3439
lwrist 4.49062
lhand 4.2445 -1.18591
lfingers 7.12502
lthumb 29.6491 26.4643
rfemur -30.2328 0.0383841 34.3258
rtibia 47.0246
rfoot -26.7681 -5.46232
rtoes -17.6698
lfemur -39.0133 7.02316 -4.94192
ltibia 69.3442
lfoot -27.0042 -5.26237
ltoes -15.4712
598
root 2.76697 16.4421 16.0646 28.6678 -50.7091 -22.9337
lowerback 4.51635 -0.395799 27.0295
upperback 7.22936 -0.823843 4.87211
thorax 5.66088 0.683953 -9.46328
lowerneck 0.0501297 1.81663 2.29374
upperneck -2.91247 2.3702 -2.92172
head -0.840911 1.18945 -1.30284
rclavicle -1.4074e-013 1.39944e-013
rhumerus -66.8942 13.9205 -121.456
rradius 61.33
rwrist 18.2211
rhand -3.20872 8.17851
rfingers 7.12502
rthumb 22.5136 -20.529
lclavicle -1.4074e-013 1.39944e-013
lhumerus -74.2612 -30.2207 137.032
lradius 58.2839
lwrist 4.53262
lhand 4.41273 -0.977909
lfingers 7.12502
lthumb 29.8097 26.6437
rfemur -29.3389 -1.91292 34.6904
rtibia 46.7007
rfoot -27.1212 -5.4549
rtoes -18.5513
lfemur -39.7777 8.20168 -5.13404
ltibia 72.4306
lfoot -26.7965 -4.53181
ltoes -16.6987
